<?xml version="1.0" standalone="no"?>
<!DOCTYPE svg PUBLIC "-//W3C//DTD SVG 20010904//EN"
 "http://www.w3.org/TR/2001/REC-SVG-20010904/DTD/svg10.dtd">
<svg version="1.0" xmlns="http://www.w3.org/2000/svg"
 width="192.000000pt" height="192.000000pt" viewBox="0 0 192.000000 192.000000"
 preserveAspectRatio="xMidYMid meet">
<metadata>
Created by potrace 1.11, written by Peter Selinger 2001-2013
</metadata>
<g transform="translate(0.000000,192.000000) scale(0.100000,-0.100000)"
fill="#000000" stroke="none">
<path d="M800 1775 c-172 -35 -306 -109 -435 -239 -77 -78 -99 -108 -143 -196
-72 -144 -94 -234 -94 -385 1 -143 22 -237 82 -361 105 -216 309 -383 545
-445 112 -30 298 -30 410 0 506 132 771 692 550 1160 -165 346 -546 541 -915
466z m299 -815 c0 -3 -47 -40 -104 -83 l-105 -77 0 160 0 160 105 -77 c57 -43
104 -80 104 -83z"/>
</g>
</svg>
